<?xml version="1.0" encoding="UTF-8" standalone="no"?>
<!DOCTYPE svg PUBLIC "-//W3C//DTD SVG 1.1//EN" "http://www.w3.org/Graphics/SVG/1.1/DTD/svg11.dtd">
<svg width="100%" height="100%" viewBox="0 0 300 300" version="1.1" style="fill-rule:evenodd;clip-rule:evenodd;stroke-linejoin:round;stroke-miterlimit:2;">
    <g transform="matrix(0.0909091,0,0,0.117647,0,0)">
        <rect id="Artboard1" x="0" y="0" width="3300" height="2550" style="fill:none;"/>
        <g id="Artboard11">
            <g transform="matrix(2.18192,0,0,1.68603,-241.4,512.661)">
                <path d="M1283.5,224.919C1316.84,225.652 1345.33,244.802 1358.44,275.215C1369.84,301.652 1373.98,329.715 1377.84,357.84C1386.1,417.948 1394.28,478.069 1402.08,538.235C1405.12,561.627 1408.78,585.21 1401.41,608.531C1396.68,623.523 1387.69,635.469 1373.35,642.227C1360.8,648.135 1347.67,652.794 1334.82,658.06C1315.13,666.135 1309.69,678.048 1310.5,701.594C1311.08,719.048 1312.81,736.498 1312.66,753.935C1312.43,780.569 1290.64,804.052 1264.11,807.698C1218.27,813.994 1183.61,794.927 1166.23,751.827C1158.36,732.302 1153.52,711.548 1147.4,691.323C1145.47,684.931 1143.43,678.531 1142.12,671.998C1137.64,649.635 1122.35,639.231 1101.77,633.527C1083.27,628.398 1064.91,622.644 1046.85,616.144C1027.16,609.052 1010.61,611.177 996.52,627.956C976.67,651.594 955.024,673.806 936.262,698.252C898.362,747.627 842.916,737.59 807.495,708.052C794.333,697.073 787.324,682.29 782.42,666.41C777.108,649.206 774.57,646.41 756.508,647.423C741.549,648.26 726.499,650.048 711.828,653.065C675.662,660.502 644.212,650.231 615.116,629.473C607.862,624.294 600.995,618.298 593.112,614.36C585.882,610.748 577.624,608.915 569.624,607.248C564.816,606.248 559.624,606.906 554.616,607.098C525.374,608.21 504.328,594.335 487.812,571.406C466.174,541.365 451.791,507.473 435.158,474.723C415.753,436.519 395.77,398.573 374.774,361.227C358.549,332.377 341.362,303.952 322.77,276.585C307.337,253.873 289.249,232.96 272.303,211.277C263.912,200.544 254.691,190.369 247.187,179.048C233.599,158.54 238.832,139.748 259.628,126.494C277.932,114.827 298.557,111.827 319.208,108.94C355.162,103.915 387.937,111.548 417.978,132.852C445.349,152.256 465.787,177.477 484.999,204.36C494.291,217.365 505.074,229.515 516.533,240.656C521.149,245.148 529.42,247.99 535.97,247.894C546.778,247.74 555.191,235.427 552.295,224.11C549.02,211.306 544.137,198.81 538.87,186.652C534.683,176.985 528.478,168.21 523.849,158.71C514.683,139.873 520.912,121.61 539.924,112.652C559.995,103.194 581.212,102.223 602.749,106.477C609.016,107.715 615.403,108.881 621.341,111.123C648.603,121.41 661.978,144.923 656.374,174.527C653.912,187.54 649.937,200.523 644.783,212.727C628.895,250.335 621.491,289.931 615.366,329.91C611.662,354.102 607.537,378.235 604.487,402.506C602.132,421.24 603.353,439.831 612.403,457.077C617.678,467.127 626.312,471.006 637.52,468.465C647.799,466.135 657.978,463.069 668.378,461.623C684.553,459.373 694.983,468.135 703.108,481.235C717.624,504.652 732.508,527.844 747.437,550.998C760.978,571.994 771.133,594.365 776.908,618.756C780.878,635.519 785.374,638.91 802.395,638.719C815.399,638.573 828.566,639.069 841.366,637.227C872.108,632.81 878.17,612.565 868.108,586.44C865.037,578.456 860.978,570.577 855.983,563.652C839.066,540.206 823.316,515.527 803.662,494.565C787.528,477.356 767.216,463.648 747.382,450.452C727.999,437.552 713.683,421.685 706.337,399.631C699.916,380.365 691.533,361.477 687.599,341.71C677.37,290.29 684.608,242.331 722.728,202.852C742.612,182.26 768.77,174.365 795.833,169.21C806.987,167.09 818.466,165.915 829.816,165.802C836.549,165.731 843.783,167.519 849.978,170.29C869.903,179.202 870.758,191.302 853.82,204.81C845.858,211.156 838.337,218.465 832.103,226.494C814.766,248.815 817.116,284.235 837.737,304.727C850.924,317.835 865.524,329.556 879.766,341.573C902.553,360.79 920.62,383.773 937.195,408.469C949.978,427.515 964.72,445.452 980.166,462.452C996.628,480.573 1017.41,479.323 1038.81,471.448C1063.77,462.269 1089.33,459.106 1114.77,468.956C1138.36,478.085 1155.32,494.51 1161.58,519.585C1165.19,534.098 1166.4,549.198 1169.05,563.965C1170.48,571.885 1171.94,579.94 1174.69,587.452C1179.34,600.152 1196.3,608.831 1210.61,605.985C1230.38,602.052 1244.59,598.119 1244.03,568.556C1243.62,546.952 1241.94,525.356 1240.23,503.806C1238.6,483.294 1236.47,462.81 1234.05,442.377C1230.17,409.506 1225.95,376.673 1221.7,343.844C1219.38,325.919 1215.72,308.11 1214.39,290.123C1211.88,256.394 1226.15,239.244 1258.86,228.919C1266.72,226.44 1275.27,226.194 1283.5,224.919ZM1612.99,681C1611.13,718.62 1587.83,756.183 1548.71,765.779C1524.26,771.779 1498.77,760.658 1485.15,740.575C1459.23,702.337 1466.58,654.195 1502.74,625.358C1540.6,595.158 1592.33,610.858 1607.85,657.462C1610.38,665.037 1611.31,673.141 1612.99,681ZM193.966,516.252C196.516,505.648 200.453,490.89 203.578,475.956C209.449,447.944 214.682,419.794 220.574,391.785C221.87,385.619 224.062,379.373 227.157,373.906C232.924,363.731 243.282,363.831 247.162,374.627C250.545,384.044 251.92,394.51 252.37,404.59C253.412,427.981 257.528,450.373 273.812,468.094C285.441,480.756 298.833,491.802 311.449,503.552C322.487,513.835 333.462,524.165 336.907,539.773C339.487,551.473 333.862,563.456 323.795,569.865C308.816,579.406 292.591,581.885 275.162,581.019C257.883,580.156 240.928,578.577 225.153,570.835C201.882,559.415 195.003,543.202 193.966,516.252ZM1033.72,256.5C1033.28,275.991 1030.28,292.316 1020.71,306.679C1007.72,326.191 985.141,329.72 968.466,313.366C940.9,286.333 917.591,255.954 903.462,219.466C898.616,206.945 901.87,198.97 914.245,193.916C934.162,185.783 954.475,179.054 976.533,181.366C1009.37,184.808 1026.19,207.795 1031.55,237.458C1032.83,244.545 1033.2,251.791 1033.72,256.5Z" style="fill-rule:nonzero;"/>
            </g>
        </g>
    </g>
</svg>
